<svg id="Capa_1" enable-background="new 0 0 512 512" height="512" viewBox="0 0 512 512" width="512" xmlns="http://www.w3.org/2000/svg"><g><g><path d="m443.217 173.333c-.003-.004-.006-.009-.009-.013-.005-.008-.011-.015-.016-.022-9.031-12.967-19.436-24.962-30.968-35.74 4.935-7.028 8.265-14.504 8.265-21.896 0-35.329-61.775-115.662-163.512-115.662-101.739 0-163.514 80.333-163.514 115.662 0 7.008 2.922 14.073 7.467 20.825-11.991 11.05-22.78 23.4-32.112 36.797-.011.015-.022.03-.032.045l-.004.005c-26.352 37.852-40.282 82.228-40.282 128.33v102.836c0 12.563 8.472 23.178 20 26.452v13.548c0 15.164 12.336 27.5 27.5 27.5h32.5v12.5c0 15.164 12.336 27.5 27.5 27.5h240c15.164 0 27.5-12.336 27.5-27.5v-12.5h32.5c15.164 0 27.5-12.336 27.5-27.5v-13.548c11.528-3.274 20-13.889 20-26.452v-102.836c0-46.102-13.93-90.478-40.283-128.331zm-367.217 283.667c-6.893 0-12.5-5.607-12.5-12.5v-12.5h45v25zm312.5 27.5c0 6.893-5.607 12.5-12.5 12.5h-240c-6.893 0-12.5-5.607-12.5-12.5v-60c0-.266-.015-.528-.042-.786.027-.258.042-.52.042-.786v-60.13c0-4.142-3.358-7.5-7.5-7.5s-7.5 3.358-7.5 7.5v54.202h-52.5c-6.893 0-12.5-5.607-12.5-12.5v-102.836c0-40.647 11.609-79.853 33.631-113.85 19.503 13.462 31.369 35.749 31.369 59.686v85.298c0 4.142 3.358 7.5 7.5 7.5s7.5-3.358 7.5-7.5v-85.298c0-28.856-14.283-55.724-37.765-71.973 7.424-9.851 15.697-19.047 24.725-27.436 13.431 13.951 31.141 25.259 38.775 29.827 13.905 8.32 28.627 15.304 43.35 20.712-11.163 23.861-24.242 65.985-10.649 115.7.912 3.333 3.933 5.524 7.23 5.524.654 0 1.321-.086 1.982-.268 3.996-1.092 6.349-5.217 5.256-9.212-12.67-46.338.186-85.523 10.518-106.976 17.529 5.211 34.68 8.039 50.053 8.039 15.089 0 31.503-2.58 48.374-7.46 10.369 21.746 22.78 60.552 10.245 106.397-1.092 3.996 1.261 8.12 5.256 9.212.662.181 1.328.268 1.982.268 3.297 0 6.319-2.19 7.23-5.524 13.445-49.175.833-90.895-10.343-115.038 11.254-4.069 22.599-9.092 33.794-15.049 3.656-1.946 5.043-6.488 3.098-10.145-1.946-3.657-6.487-5.043-10.145-3.098-30.377 16.166-62.996 25.437-89.492 25.437-29.791 0-67.188-11.735-100.04-31.391-33.305-19.927-48.474-39.568-48.474-49.384.003-25.058 52.675-100.662 148.517-100.662 95.841 0 148.513 75.604 148.513 100.662 0 7.136-8.684 21.722-33.159 39.344-3.361 2.42-4.125 7.107-1.704 10.469s7.106 4.124 10.469 1.704c6.239-4.492 14.267-10.82 21.449-18.15 8.638 8.132 16.574 17.015 23.721 26.498-23.483 16.25-37.766 43.117-37.766 71.973v175.428c0 .266.015.528.042.786-.027.258-.042.52-.042.786zm47.5-27.5h-32.5v-25h45v12.5c0 6.893-5.607 12.5-12.5 12.5zm32.5-52.5c0 6.893-5.607 12.5-12.5 12.5h-52.5v-169.5c0-23.937 11.866-46.223 31.369-59.685 22.021 33.997 33.631 73.203 33.631 113.849z"/><path d="m256 76.436c-43.458 0-77.5 20.864-77.5 47.5s34.042 47.5 77.5 47.5 77.5-20.864 77.5-47.5-34.042-47.5-77.5-47.5zm0 80c-33.878 0-62.5-14.883-62.5-32.5s28.622-32.5 62.5-32.5 62.5 14.883 62.5 32.5-28.622 32.5-62.5 32.5z"/><path d="m346.833 394.061-5.936-2.544c-16.864-7.228-30.823-20.167-39.307-36.435-4.756-9.119-14.099-14.784-24.383-14.784h-42.414c-10.284 0-19.627 5.665-24.383 14.784-8.484 16.268-22.443 29.207-39.307 36.435l-5.935 2.544c-10.125 4.339-16.667 14.261-16.667 25.276v25.163c0 15.164 12.336 27.5 27.5 27.5h160c15.164 0 27.5-12.336 27.5-27.5v-25.163c-.001-11.016-6.543-20.938-16.668-25.276zm1.667 50.439c0 6.893-5.607 12.5-12.5 12.5h-160c-6.893 0-12.5-5.607-12.5-12.5v-25.163c0-5.007 2.974-9.517 7.576-11.489l5.936-2.544c20.035-8.586 36.619-23.959 46.698-43.286 2.162-4.145 6.409-6.72 11.083-6.72h42.414c4.675 0 8.921 2.575 11.083 6.72 10.079 19.327 26.663 34.699 46.698 43.286l5.936 2.544c4.602 1.972 7.576 6.482 7.576 11.489z"/></g></g></svg>